<?xml version="1.0" encoding="UTF-8"?><svg id="Calque_2" xmlns="http://www.w3.org/2000/svg" viewBox="0 0 25.66 23.77"><defs><style>.cls-1{fill:#fff;}.cls-1,.cls-2{stroke-linecap:round;stroke-linejoin:round;}.cls-1,.cls-2,.cls-3{stroke:#ef7d87;}.cls-2{fill:none;}.cls-3{fill:#ef7d87;stroke-width:.1px;}</style></defs><g id="Calque_1-2"><path class="cls-3" d="M25.3,.09c-.06-.03-.13-.03-.19-.03H6.56c-.13,0-.26,.05-.35,.15L.2,6.35c-.09,.09-.15,.22-.15,.36v12.82c0,.28,.22,.51,.5,.51H19.09c.14,0,.26-.06,.35-.15l6.01-6.15c.09-.1,.15-.23,.15-.36V.56c0-.21-.12-.39-.31-.47Zm-6.41,6.12h-5.1L18.8,1.08h5.1l-5.01,5.13Zm-1.5-5.13l-5.16,5.28c-.09,.1-.15,.23-.15,.36v4.68l-.72-.49c-.17-.12-.39-.12-.56,0l-1.23,.84-1.23-.84c-.08-.06-.18-.09-.28-.09s-.19,.03-.28,.09l-.72,.49V6.93L12.78,1.08h4.6Zm-10.61,0h4.6L6.36,6.2H1.76L6.77,1.08Zm11.82,17.95H1.05V7.23H6.06v5.13c0,.19,.1,.36,.26,.45,.16,.09,.36,.08,.51-.03l1.23-.84,1.23,.84c.17,.12,.39,.12,.56,0l1.23-.84,1.23,.84c.08,.06,.18,.09,.28,.09,.08,0,.16-.02,.24-.06,.16-.09,.26-.26,.26-.45V7.23h5.51v11.79Zm6.01-5.85l-5.01,5.13V6.93L24.6,1.8V13.17Z"/><circle class="cls-1" cx="17.67" cy="17.97" r="5.31"/><path class="cls-2" d="M17.67,15.34c1.51,0,2.73,1.22,2.73,2.73s-1.22,2.73-2.73,2.73c-.99,0-1.86-.53-2.34-1.32"/><line class="cls-2" x1="17.49" y1="15.2" x2="18.7" y2="14.7"/><line class="cls-2" x1="17.48" y1="15.29" x2="18.27" y2="16.33"/></g></svg>