<?xml version="1.0" encoding="UTF-8"?><svg id="Calque_2" xmlns="http://www.w3.org/2000/svg" viewBox="0 0 24.79 22.59"><defs><style>.cls-1{stroke-linecap:round;stroke-linejoin:round;}.cls-1,.cls-2,.cls-3{stroke:#ef7d87;}.cls-1,.cls-3{fill:none;}.cls-2{fill:#ef7d87;}.cls-2,.cls-3{stroke-miterlimit:10;}</style></defs><g id="Calque_1-2"><path class="cls-1" d="M4.37,17.61V7.67c0-3.94,3.27-7.17,7.27-7.17h1.38c4,0,7.27,3.23,7.27,7.17v9.93"/><path class="cls-2" d="M20.39,17.59h1.33c1.41,0,2.57-1.16,2.57-2.57v-4.26c0-1.41-1.16-2.57-2.57-2.57h-1.33"/><path class="cls-2" d="M4.4,17.61h-1.33c-1.41,0-2.57-1.16-2.57-2.57v-4.26c0-1.41,1.16-2.57,2.57-2.57h1.33"/><path class="cls-3" d="M10.66,21.6h-3.72c-1.98,0-3.61-1.62-3.61-3.61h0c0-.6,.15-1.17,.41-1.67"/><rect class="cls-2" x="10.07" y="20.72" width="3.15" height="1.37" rx=".6" ry=".6"/></g></svg>